<?xml version="1.0" encoding="utf-8"?>
<!-- Generator: Adobe Illustrator 27.0.1, SVG Export Plug-In . SVG Version: 6.00 Build 0)  -->
<svg version="1.1" id="Layer_1" xmlns="http://www.w3.org/2000/svg" xmlns:xlink="http://www.w3.org/1999/xlink" x="0px" y="0px"
	 width="135px" height="32px" viewBox="0 0 135 32" style="enable-background:new 0 0 135 32;" xml:space="preserve">
<style type="text/css">
	.st0{fill:#FFFFFF;}
	.st1{fill:#ADD322;}
	.st2{fill:#25242B;}
</style>
<path class="st0" d="M13.6,1.1c-0.2-0.6-0.7-1-1.4-1s-1.2,0.3-1.5,1L0.2,29.9c-0.1,0.4-0.1,0.8,0.1,1.1c0.2,0.3,0.6,0.5,1,0.5
	c0.6,0,1-0.3,1.1-0.8c0.7-2.1,2-3.7,3.8-5s3.8-1.9,5.9-1.9H12l0,0h0.2c2.2,0,4.1,0.6,5.9,1.9c1.8,1.3,3,2.9,3.8,5
	c0.2,0.5,0.6,0.8,1.1,0.8c0.4,0,0.7-0.2,1-0.5c0.2-0.3,0.3-0.7,0.1-1.1L13.6,1.1z M15.9,19.8c-0.9,1.3-2.2,2-3.8,2s-2.9-0.6-3.8-2
	c-0.9-1.3-1.1-2.7-0.6-4.2l4.4-12.3l4.4,12.3C17.1,17.1,16.9,18.5,15.9,19.8z M83.7,8c-0.4-1.9-1.2-3.4-2.6-4.8
	C79,1.1,76.4,0,73.3,0h-9.7c-0.7,0-1,0.3-1,1h-0.1v15c0,4,0.1,6.7,0.4,8c0.3,1.9,1.2,3.4,2.5,4.8c2.2,2.1,4.8,3.2,7.9,3.2
	s5.7-1.1,7.9-3.2c1.4-1.4,2.2-2.9,2.6-4.8c0.2-1.4,0.3-4,0.3-8S84,9.4,83.7,8z M81.4,23.4c-0.3,1.6-1,3-2.1,4.1
	c-1.6,1.6-3.6,2.4-6,2.4c-2.3,0-4.3-0.8-5.9-2.4c-1.1-1.1-1.8-2.4-2.1-4.1C65.1,22.1,65,19.6,65,16s0.1-6,0.4-7.4c0.3-1.6,1-3,2.1-4
	C69,2.9,71,2.1,73.4,2.1c2.3,0,4.3,0.8,6,2.4c1.1,1.1,1.8,2.4,2.1,4c0.2,1.3,0.3,3.8,0.3,7.4C81.7,19.6,81.6,22.1,81.4,23.4z
	 M41.6,21.4c-1.1-1.8-1.7-3.8-1.7-6c0-2.1,0.6-4.1,1.6-6l4.4-7.5c0.2-0.4,0.2-0.8,0-1.1c-0.2-0.4-0.5-0.6-1-0.6h-0.1
	c-0.4,0-0.7,0.2-1,0.6l-5.1,9c-0.5,0.8-1.2,1.2-2.1,1.2c-0.9,0-1.6-0.4-2.1-1.2l-5.1-9c-0.2-0.4-0.6-0.6-1-0.6h-0.1
	c-0.5,0-0.8,0.2-1,0.6s-0.2,0.8,0,1.1l4.4,7.6c1.1,1.8,1.6,3.8,1.6,6c0,2.1-0.6,4.1-1.7,6l-5,8.4c-0.2,0.4-0.2,0.8,0,1.2
	c0.2,0.4,0.6,0.6,1,0.6s0.7-0.2,1-0.6l5.9-10c0.4-0.8,1.1-1.1,2-1.1s1.6,0.4,2.1,1.1l5.8,9.9c0.2,0.4,0.5,0.6,1,0.6h0.1
	c0.4,0,0.8-0.2,1-0.6s0.2-0.8,0-1.2L41.6,21.4z M53.8,0.1c-0.8,0-1.2,0.4-1.2,1.2v29c0,0.8,0.4,1.2,1.2,1.2s1.2-0.4,1.2-1.2v-29
	C55,0.5,54.6,0.1,53.8,0.1z"/>
<path id="v2-bg" class="st1" d="M131.1,16c0,10.6-5.3,16-15.9,16s-15.9-5.4-15.9-16s5.3-16,15.9-16S131.1,5.2,131.1,16z"/>
<g>
	<polygon class="st2" points="113.6,13.1 110.2,18.6 109,13.1 106.7,13.1 108.5,21.2 110.9,21.2 115.9,13.1 	"/>
	<polygon class="st2" points="124.8,17 123,17 123.4,15 121.2,15 120.7,17 118,17 123.9,10.6 121.2,10.6 114.9,17.3 114.6,19 
		120.3,19 119.8,21.2 122.2,21.2 122.6,19 124.4,19 	"/>
</g>
</svg>
