<?xml version="1.0" encoding="utf-8"?>
<!-- Generator: Adobe Illustrator 27.0.1, SVG Export Plug-In . SVG Version: 6.00 Build 0)  -->
<svg version="1.1" id="Layer_1" xmlns="http://www.w3.org/2000/svg" xmlns:xlink="http://www.w3.org/1999/xlink" x="0px" y="0px"
	 width="70px" height="70px" viewBox="0 0 70 70" style="enable-background:new 0 0 70 70;" xml:space="preserve">
<style type="text/css">
	.st0{opacity:0.19;enable-background:new    ;}
	.st1{fill:#ADD322;}
	.st2{opacity:0.24;enable-background:new    ;}
</style>
<ellipse class="st0" cx="35.5" cy="65.2" rx="15.2" ry="4.8"/>
<path class="st1" d="M58.1,22.6c0,12.5-22.6,42.7-22.6,42.7S12.9,35.1,12.9,22.6S23,0,35.5,0S58.1,10.1,58.1,22.6z"/>
<circle class="st2" cx="35.6" cy="22.6" r="10"/>
<path class="st2" d="M35.6,16c4.9,0,9,3.6,9.8,8.3c0.2-0.5,0.2-1.2,0.2-1.7c0-5.4-4.4-10-10-10c-5.4,0-10,4.4-10,10
	c0,0.5,0,1.2,0.2,1.7C26.7,19.6,30.7,16,35.6,16z"/>
</svg>
